<svg xmlns="http://www.w3.org/2000/svg" xml:space="preserve" width="32" height="32">
<style>.icon{fill:#e5e5e5}@media (prefers-color-scheme:dark){.icon{fill:#e5e5e5}}</style>
<path class="icon" d="M25 6.2V3.7c0-.2.1-.4.2-.5.1-.2.3-.2.4-.2h2.7c.2 0 .4.1.5.2.1.2.2.3.2.5v2.6c0 .2-.1.4-.2.5-.1.1-.3.2-.5.2h-2.7c-.2 0-.4-.1-.5-.2 0-.2-.1-.4-.1-.6zM12.7 15.7h6.2v-2.3c0-.9-.3-1.6-.9-2.2-.6-.6-1.4-.9-2.2-.9-.9-.1-1.6.3-2.2.9-.6.6-.9 1.4-.9 2.2v2.3zm10.2 1.2v7c0 .3-.1.6-.3.8-.2.2-.5.3-.8.3H10c-.3 0-.6-.1-.8-.3s-.3-.5-.3-.8v-7c0-.3.1-.6.3-.8s.5-.3.8-.3h.4v-2.3c0-1.5.5-2.8 1.6-3.8s2.4-1.6 3.8-1.6c1.5 0 2.8.5 3.8 1.6 1.1 1.1 1.6 2.4 1.6 3.8v2.3h.4c.3 0 .6.1.8.3.4.2.5.5.5.8z" style="fill=currentColor;fill-opacity:1"/>
</svg>