<svg xmlns="http://www.w3.org/2000/svg" xml:space="preserve" width="161.8" height="54.7"><g fill="#FFF" stroke="#FFF" style="fill:#fff"><path d="M26.7 23.1c0 4.5-1.1 8.2-3.3 11-2.2 2.8-5.2 4.2-9.1 4.2-1.5 0-2.8-.4-4-1.1-1.2-.7-2.2-1.7-2.9-3v12.1H5.3c-1.3 0-2.4-.4-3.4-1.3S.5 43 .5 41.6V25c0-4.8 1.1-8.6 3.4-11.3 2.3-2.8 5.7-4.1 10.4-4.1 3.5 0 6.5 1.4 8.9 4.1 2.2 2.6 3.5 5.8 3.5 9.4zm-7.1 1.8c0-3.2-.5-5.5-1.6-7s-2.7-2.2-4.9-2.2c-1.8 0-3.3.7-4.3 2.2s-1.6 3.4-1.6 5.8c0 2.7.6 4.8 1.8 6.3s2.9 2.3 4.9 2.3c1.7 0 3-.7 4.1-2 1.1-1.5 1.6-3.3 1.6-5.4zM47.8 16.8h-.3c-1.3-.5-2.7-.8-4-.8-3.2 0-4.7 2-4.7 5.9v15.8h-1.9c-1.6 0-2.8-.4-3.7-1.1-.9-.8-1.3-1.8-1.3-3.2V20.6c0-3 .8-5.6 2.5-7.6 1.7-2.1 4.3-3.1 7.7-3.1 1.9 0 3.4.4 4.3 1.3.9.9 1.4 1.9 1.4 3.2v2.4zM50.3 24.4c0-4.3 1.2-7.9 3.6-10.7 2.4-2.8 5.7-4.2 10-4.2 4 0 7.1 1.4 9.5 4.1 2.3 2.7 3.5 6 3.5 9.8 0 4.3-1.2 7.9-3.6 10.7-2.4 2.8-5.7 4.2-10 4.2-4 0-7.1-1.4-9.5-4.1-2.2-2.7-3.5-6-3.5-9.8zm19.6 0c0-5.8-2.2-8.8-6.5-8.8-1.9 0-3.4.7-4.4 2.1-1 1.4-1.5 3.3-1.5 5.7 0 5.8 2.2 8.7 6.5 8.7 1.9 0 3.4-.7 4.4-2.1 1-1.4 1.5-3.3 1.5-5.6zM98.3 7.1h-.2c-1.2-.4-2.6-.6-4-.6-3.3 0-4.9 1.5-4.9 4.6v2.4h7.9v1.9c0 1.2-.5 2.1-1.5 2.8-1 .7-2.1 1.1-3.4 1.1h-3v18.4h-2.8c-1.1 0-2.1-.4-2.9-1.2-.8-.8-1.2-1.8-1.2-2.9V10.5c0-1.1.2-2.1.6-3.2.4-1.1 1-2.2 1.8-3.2.8-1.1 1.9-1.9 3.3-2.6 1.4-.7 3.1-1 5-1 1.5 0 2.8.4 3.8 1.2 1 .8 1.5 1.8 1.5 3.2v2.2zM114.6 33.8c0 2.8-1.5 4.1-4.6 4.1-2.8 0-5-.7-6.5-2.2s-2.2-3.6-2.2-6.4V.9h1.9c1.6 0 2.9.4 3.7 1.2.8.8 1.2 1.9 1.2 3.3v23.2c0 1.4.4 2.3 1.1 2.8.7.5 1.9.8 3.6.8h1.8v1.6zM139.3 28.3c0 2.9-1 5.3-2.9 7.1s-4.4 2.8-7.5 2.8h-1.4c-3.2 0-5.9-.8-7.9-2.4-2.1-1.8-3.1-3.9-3.1-6.4 0-2.7 1.1-4.8 3.2-6.3 2.2-1.5 5.6-2.3 10.4-2.3h2.4v-.4c0-1.9-.5-3.2-1.4-4-.9-.7-2.4-1.1-4.5-1.1-2.2 0-4.1.3-5.5 1-1.5.6-2.5 1.4-3.2 2.2h-.3v-2.2c0-1.8.8-3.3 2.5-4.7s4.2-2 7.5-2c1.6 0 3.1.2 4.4.6 1.3.4 2.5 1.1 3.6 2 1.1.9 2 2.2 2.6 3.9.6 1.7.9 3.6.9 5.9v6.3h.2zm-6.7 0v-2.6h-2.3c-2.5 0-4.2.3-5.2.8-1 .6-1.5 1.4-1.5 2.6 0 1.1.4 1.9 1.3 2.5.8.6 2 .9 3.5.9 2.7.1 4.2-1.4 4.2-4.2zM145 11.2c0-1.3.1-2.3.4-3 .3-.7.8-1.5 1.6-2.4 1.1-1.3 2.2-1.9 3.2-1.9h1.6v6.2h9.5v2.8c0 .8-.4 1.6-1.1 2.2-.7.7-1.7 1-3 1h-5.5v10.8c0 3.3 1.4 4.9 4.3 4.9 2.2 0 3.9-.3 4.9-1h.3v2.4c0 1.4-.5 2.6-1.6 3.4-1 .8-2.5 1.2-4.5 1.2-3.4 0-6-.9-7.7-2.7-1.7-1.8-2.6-4.3-2.6-7.5V11.2h.2z" style="fill:#fff"/></g><g fill="#FFF" style="fill:#fff"><path d="M13.1 47.5h1.2v.8c.2-.3.4-.5.7-.6s.6-.2.9-.2c.6 0 1.1.2 1.5.7s.6 1.1.6 2-.2 1.5-.6 2-.9.7-1.5.7c-.3 0-.5-.1-.8-.2-.3-.1-.5-.3-.7-.6v2.6H13l.1-7.2zm1.3 2.6c0 .6.1 1 .3 1.3.2.3.5.4.8.4s.6-.1.8-.4c.2-.3.3-.7.3-1.3 0-.5-.1-.9-.3-1.2-.2-.3-.5-.4-.8-.4s-.6.1-.8.4c-.1.3-.3.6-.3 1.2zM18.9 50.1c0-.5.1-.9.3-1.3.2-.4.5-.8 1-1 .5-.2.9-.3 1.4-.3.8 0 1.4.3 1.9.8s.8 1.2.8 1.9c0 .8-.3 1.4-.8 2-.5.5-1.1.8-1.9.8-.5 0-.9-.1-1.4-.3-.5-.2-.8-.5-1-.9-.1-.6-.3-1.1-.3-1.7zm1.4 0c0 .5.1.9.4 1.2.3.3.5.4.9.4s.7-.1.9-.4c.2-.3.4-.7.4-1.2s-.1-.9-.4-1.2-.5-.4-.9-.4-.7.1-.9.4c-.1.3-.4.7-.4 1.2zM28.8 52.7v-.8c-.2.3-.4.5-.7.7-.3.2-.6.2-1 .2-.3 0-.7-.1-.9-.2-.2-.1-.5-.4-.6-.6-.1-.2-.2-.7-.2-1.1v-3.3h1.4v2.3c0 .7 0 1.2.1 1.3.1.2.1.3.3.4.1.1.3.1.5.1s.4-.1.6-.2c.2-.1.3-.3.4-.5.1-.2.1-.7.1-1.4v-2.2h1.4v5.2l-1.4.1zM32.8 52.7h-1.5v-5.2h1.3v.7c.2-.3.4-.6.6-.7.2-.1.4-.2.6-.2.3 0 .6.1.9.3l-.4 1.3c-.2-.1-.4-.2-.6-.2-.2 0-.4.1-.5.2-.1.1-.2.3-.3.6-.1.3-.1.9-.1 1.7v1.5zM38.1 47.5h1.2v.8c.2-.3.4-.5.7-.6s.6-.2.9-.2c.6 0 1.1.2 1.5.7s.6 1.1.6 2-.2 1.5-.6 2c-.4.4-.9.7-1.5.7-.3 0-.5-.1-.8-.2-.3-.1-.5-.3-.7-.6v2.6H38l.1-7.2zm1.3 2.6c0 .6.1 1 .3 1.3.2.3.5.4.8.4s.6-.1.8-.4c.2-.3.3-.7.3-1.3 0-.5-.1-.9-.3-1.2-.2-.3-.5-.4-.8-.4s-.6.1-.8.4c-.1.3-.3.6-.3 1.2zM45.6 45.6v2.6c.4-.5 1-.8 1.6-.8.3 0 .6.1.9.2.3.1.4.3.6.4.2.1.2.4.3.6.1.2.1.6.1 1v3h-1.5v-2.7c0-.5 0-.9-.1-1s-.1-.3-.3-.3c-.1-.1-.3-.1-.5-.1s-.4.1-.6.2c-.2.1-.2.2-.3.4-.1.2-.1.6-.1 1v2.6h-1.4v-7.2l1.3.1zM50.3 47.5h1.3v.8c.2-.3.4-.5.7-.6.3-.1.6-.2.9-.2.6 0 1.1.2 1.5.7.4.5.6 1.1.6 2s-.2 1.5-.6 2c-.4.5-.9.7-1.5.7-.3 0-.5-.1-.8-.2-.3-.1-.5-.3-.7-.6v2.6h-1.4v-7.2zm1.4 2.6c0 .6.1 1 .3 1.3s.5.4.8.4c.3 0 .6-.1.8-.4.2-.3.3-.7.3-1.3 0-.5-.1-.9-.3-1.2-.2-.3-.5-.4-.8-.4-.3 0-.6.1-.8.4s-.3.6-.3 1.2zM56.4 45.6h2.9c.6 0 1 0 1.3.1.3 0 .5.1.7.3.2.2.4.3.5.6.1.2.2.5.2.8s-.1.6-.3.9c-.2.3-.4.5-.7.6.4.1.8.3 1 .6.2.3.4.7.4 1.1 0 .3-.1.6-.2 1-.2.3-.4.6-.6.7-.3.2-.6.3-1 .3h-4.1v-7h-.1zm1.5 1.2v1.7h1.9c.2 0 .4-.1.6-.3.1-.1.2-.3.2-.6 0-.2-.1-.4-.2-.5s-.3-.2-.5-.3h-2zm0 2.8v1.9h2.4c.2 0 .4-.1.5-.3.1-.2.2-.4.2-.6 0-.2-.1-.4-.2-.5-.1-.1-.3-.3-.5-.3s-.6-.1-1.3-.1l-1.1-.1zM63.7 45.6h2.9c.6 0 1 0 1.3.1.3 0 .5.1.7.3.2.2.4.3.5.6.1.2.2.5.2.8s-.1.6-.3.9c-.2.3-.4.5-.7.6.4.1.8.3 1 .6.2.3.4.7.4 1.1 0 .3-.1.6-.2 1-.2.3-.4.6-.6.7-.3.2-.6.3-1 .3h-4.1l-.1-7zm1.5 1.2v1.7h1.9c.2 0 .4-.1.6-.3.1-.1.2-.3.2-.6 0-.2-.1-.4-.2-.5-.1-.1-.3-.2-.5-.3h-2zm0 2.8v1.9h2.3c.2 0 .4-.1.5-.3.1-.2.2-.4.2-.6 0-.2-.1-.4-.2-.5s-.3-.3-.5-.3-.6-.1-1.3-.1l-1-.1zM79.3 52.7v-1.4h1.4v1.4h-1.4zM73.3 50.8l1.3-.2c0 .3.2.6.3.8s.4.3.7.3c.3 0 .5-.1.7-.3.2-.2.3-.5.3-.9 0-.3-.1-.6-.3-.8-.2-.2-.4-.3-.7-.3-.2 0-.4 0-.6.1l.3-1.1c.4 0 .7-.1.8-.2.2-.2.3-.4.3-.7 0-.2-.1-.4-.2-.6-.1-.2-.3-.2-.6-.2-.2 0-.4.1-.6.2s-.3.4-.3.7l-1.4-.2c.1-.4.2-.8.4-1 .2-.3.4-.5.7-.6.3-.1.7-.2 1.1-.2.7 0 1.2.2 1.6.6.3.4.5.7.5 1.2 0 .6-.3 1.1-1 1.5.4.1.7.3 1 .6.3.3.4.7.4 1.1 0 .6-.2 1.2-.7 1.6s-1 .7-1.7.7c-.6 0-1.2-.2-1.6-.6-.3-.4-.7-.9-.7-1.5zM81.8 50.8l1.3-.2c0 .3.2.6.3.8s.4.3.7.3.5-.1.7-.3c.2-.2.3-.5.3-.9 0-.3-.1-.6-.3-.8-.2-.2-.4-.3-.7-.3-.2 0-.4 0-.6.1l.3-1.1c.4 0 .7-.1.8-.2.2-.2.3-.4.3-.7 0-.2-.1-.4-.2-.6-.1-.2-.3-.2-.6-.2-.2 0-.4.1-.6.2-.2.1-.3.4-.3.7l-1.4-.2c.1-.4.2-.8.4-1 .2-.3.4-.5.7-.6.3-.1.7-.2 1.1-.2.7 0 1.2.2 1.6.6.3.4.5.7.5 1.2 0 .6-.3 1.1-1 1.5.4.1.7.3 1 .6.3.3.4.7.4 1.1 0 .6-.2 1.2-.7 1.6s-1 .7-1.7.7c-.6 0-1.2-.2-1.6-.6-.3-.4-.7-.9-.7-1.5z" style="fill:#fff"/></g></svg>