<svg xmlns="http://www.w3.org/2000/svg" xml:space="preserve" width="32" height="32">
<style>.icon{fill:#333333}@media (prefers-color-scheme:dark){.icon{fill:#e5e5e5}}</style>
<path class="icon" d="M10.8 9H9.6c-.3 0-.6.1-.6.5v15.1c0 .4.2.5.6.5h1.1c.3 0 .6-.1.6-.5V9.5h.1c-.1-.4-.3-.5-.6-.5zm11.8 4.2-8.9-4.1c-.6-.3-1.2-.1-1.2.5v8c0 .6.5.8 1.2.5l8.9-4.1s.3-.2.3-.4-.3-.4-.3-.4zM25 6.2V3.7c0-.2.1-.4.2-.5.1-.2.3-.2.4-.2h2.7c.2 0 .4.1.5.2.1.2.2.3.2.5v2.6c0 .2-.1.4-.2.5-.1.1-.3.2-.5.2h-2.7c-.2 0-.4-.1-.5-.2 0-.2-.1-.4-.1-.6z" style="fill=currentColor;fill-opacity:1"/>
</svg>