<?xml version="1.0" encoding="UTF-8"?>
<svg version="1.1" xmlns="http://www.w3.org/2000/svg" width="674" height="140">
<path d="M0 0 C5.94 0 11.88 0 18 0 C19.25902299 3.77706898 20.29069299 6.96655189 21.00561523 10.78588867 C21.17596786 11.68510544 21.3463205 12.5843222 21.52183533 13.51078796 C21.69896561 14.47015762 21.87609589 15.42952728 22.05859375 16.41796875 C22.24841324 17.42982742 22.43823273 18.4416861 22.63380432 19.48420715 C23.03499459 21.6280094 23.4341127 23.77220033 23.83129883 25.91674805 C24.42727649 29.13233916 25.03044923 32.34651374 25.63476562 35.56054688 C27.96328533 48.01118324 30.1088802 60.47540499 32 73 C33.86318859 57.66270913 35.48819592 42.3002979 37.125 26.9375 C37.40486507 24.31704844 37.68481236 21.69660566 37.96484375 19.07617188 C38.64417649 12.71754867 39.32239859 6.35880792 40 0 C44.95 0 49.9 0 55 0 C52.52478721 26.25028304 49.83388819 52.4774239 47.08584595 78.70033264 C46.8120865 81.31645152 46.53943777 83.93268402 46.26708984 86.5489502 C45.83251783 90.72192695 45.39494623 94.89457871 44.95506859 99.06699944 C44.79089607 100.62824487 44.62767521 102.1895907 44.46544838 103.75103951 C44.24114547 105.90764485 44.01324761 108.06384102 43.78442383 110.2199707 C43.65659012 111.43755569 43.52875641 112.65514069 43.39704895 113.90962219 C43 117 43 117 42 121 C36.72 121 31.44 121 26 121 C22.16225584 103.96274182 18.79809078 86.87139322 15.6875 69.6875 C15.51105957 68.71462036 15.33461914 67.74174072 15.15283203 66.73937988 C14.64519632 63.93472804 14.14018917 61.12962109 13.63671875 58.32421875 C13.48591354 57.48664536 13.33510834 56.64907196 13.17973328 55.78611755 C12.36261327 51.20020782 11.62923254 46.61553076 11 42 C8.55056415 61.09763397 6.61707924 80.24156977 4.71411133 99.40014648 C4.55554909 100.98305733 4.55554909 100.98305733 4.39378357 102.59794617 C4.19338663 104.59896545 3.99500868 106.60018829 3.79896545 108.60163879 C3.70852463 109.50234604 3.6180838 110.40305328 3.52490234 111.33105469 C3.44734711 112.11502625 3.36979187 112.8989978 3.28988647 113.70672607 C2.98027351 116.15605501 2.48417545 118.57912277 2 121 C-2.62 121 -7.24 121 -12 121 C-12.11558745 113.79387056 -11.7000199 106.83309577 -10.8984375 99.67529297 C-10.78139465 98.59118637 -10.66435181 97.50707977 -10.54376221 96.39012146 C-10.15924348 92.84023789 -9.76718202 89.2912319 -9.375 85.7421875 C-9.10548938 83.26788333 -8.83645348 80.79352741 -8.56787109 78.31912231 C-7.86239958 71.83154805 -7.15051064 65.34469374 -6.43725586 58.85797119 C-5.70889697 52.22872036 -4.98781464 45.59867519 -4.265625 38.96875 C-2.84970785 25.97851112 -1.42700613 12.98902507 0 0 Z " fill="#FFFFFF" transform="translate(372,11)"/>
<path d="M0 0 C5.94 0 11.88 0 18 0 C19.25902299 3.77706898 20.29069299 6.96655189 21.00561523 10.78588867 C21.17596786 11.68510544 21.3463205 12.5843222 21.52183533 13.51078796 C21.69896561 14.47015762 21.87609589 15.42952728 22.05859375 16.41796875 C22.24841324 17.42982742 22.43823273 18.4416861 22.63380432 19.48420715 C23.03499459 21.6280094 23.4341127 23.77220033 23.83129883 25.91674805 C24.42727649 29.13233916 25.03044923 32.34651374 25.63476562 35.56054688 C27.96328533 48.01118324 30.1088802 60.47540499 32 73 C33.86318859 57.66270913 35.48819592 42.3002979 37.125 26.9375 C37.40486507 24.31704844 37.68481236 21.69660566 37.96484375 19.07617188 C38.64417649 12.71754867 39.32239859 6.35880792 40 0 C44.95 0 49.9 0 55 0 C52.52478721 26.25028304 49.83388819 52.4774239 47.08584595 78.70033264 C46.8120865 81.31645152 46.53943777 83.93268402 46.26708984 86.5489502 C45.83251783 90.72192695 45.39494623 94.89457871 44.95506859 99.06699944 C44.79089607 100.62824487 44.62767521 102.1895907 44.46544838 103.75103951 C44.24114547 105.90764485 44.01324761 108.06384102 43.78442383 110.2199707 C43.65659012 111.43755569 43.52875641 112.65514069 43.39704895 113.90962219 C43 117 43 117 42 121 C36.72 121 31.44 121 26 121 C22.16225584 103.96274182 18.79809078 86.87139322 15.6875 69.6875 C15.51105957 68.71462036 15.33461914 67.74174072 15.15283203 66.73937988 C14.64519632 63.93472804 14.14018917 61.12962109 13.63671875 58.32421875 C13.48591354 57.48664536 13.33510834 56.64907196 13.17973328 55.78611755 C12.36261327 51.20020782 11.62923254 46.61553076 11 42 C8.55056415 61.09763397 6.61707924 80.24156977 4.71411133 99.40014648 C4.55554909 100.98305733 4.55554909 100.98305733 4.39378357 102.59794617 C4.19338663 104.59896545 3.99500868 106.60018829 3.79896545 108.60163879 C3.70852463 109.50234604 3.6180838 110.40305328 3.52490234 111.33105469 C3.44734711 112.11502625 3.36979187 112.8989978 3.28988647 113.70672607 C2.98027351 116.15605501 2.48417545 118.57912277 2 121 C-2.62 121 -7.24 121 -12 121 C-12.11558745 113.79387056 -11.7000199 106.83309577 -10.8984375 99.67529297 C-10.78139465 98.59118637 -10.66435181 97.50707977 -10.54376221 96.39012146 C-10.15924348 92.84023789 -9.76718202 89.2912319 -9.375 85.7421875 C-9.10548938 83.26788333 -8.83645348 80.79352741 -8.56787109 78.31912231 C-7.86239958 71.83154805 -7.15051064 65.34469374 -6.43725586 58.85797119 C-5.70889697 52.22872036 -4.98781464 45.59867519 -4.265625 38.96875 C-2.84970785 25.97851112 -1.42700613 12.98902507 0 0 Z " fill="#FFFFFF" transform="translate(85,11)"/>
<path d="M0 0 C0.80308594 -0.01998047 1.60617187 -0.03996094 2.43359375 -0.06054688 C9.71329661 -0.0546476 14.97560858 2.02785365 20.25 7.0625 C25.73932849 14.45600762 27.13290135 22.43643144 26.9375 31.4375 C26.94458984 32.35789062 26.95167969 33.27828125 26.95898438 34.2265625 C26.85293457 45.81046423 23.39195731 55.65564215 15.1875 63.9375 C14.300625 64.7625 13.41375 65.5875 12.5 66.4375 C12.96172607 66.95183594 13.42345215 67.46617188 13.89916992 67.99609375 C20.26640639 77.70668772 19.18835822 94.15255537 19.6875 105.4375 C19.7691789 107.09900796 19.85185655 108.76046714 19.93554688 110.421875 C20.13698252 114.42665493 20.31810808 118.43159789 20.5 122.4375 C15.22 122.4375 9.94 122.4375 4.5 122.4375 C4.31824219 119.859375 4.13648438 117.28125 3.94921875 114.625 C3.76336068 112.10605731 3.57340276 109.58745471 3.38305664 107.06884766 C3.25377326 105.32925183 3.12869982 103.58933747 3.00805664 101.84912109 C2.83307017 99.33594087 2.64256233 96.82432684 2.44921875 94.3125 C2.39908127 93.54446045 2.34894379 92.7764209 2.29728699 91.98510742 C1.69930276 84.29527671 1.69930276 84.29527671 -1.5 77.4375 C-4.24527606 76.12942043 -6.4310142 75.83998994 -9.5 75.4375 C-9.61593506 76.64809082 -9.73187012 77.85868164 -9.85131836 79.10595703 C-10.28345696 83.61250888 -10.71834661 88.11879179 -11.15405273 92.625 C-11.3419741 94.57251922 -11.52915694 96.52010986 -11.71557617 98.46777344 C-11.98420543 101.27297928 -12.25552047 104.07791458 -12.52734375 106.8828125 C-12.60967758 107.74866974 -12.69201141 108.61452698 -12.77684021 109.50662231 C-12.85684769 110.32701996 -12.93685516 111.1474176 -13.01928711 111.99267578 C-13.08812607 112.70771271 -13.15696503 113.42274963 -13.22789001 114.15945435 C-13.55900637 116.93148852 -14.04104079 119.68374475 -14.5 122.4375 C-19.78 122.4375 -25.06 122.4375 -30.5 122.4375 C-28.95412467 107.95525224 -27.4069121 93.47314802 -25.85799503 78.99122524 C-25.13878719 72.2666015 -24.42004115 65.54192901 -23.70239258 58.81713867 C-23.00974624 52.32664648 -22.31579934 45.83629411 -21.62106133 39.34602547 C-21.35629691 36.87058167 -21.09196739 34.39509132 -20.82808113 31.91955376 C-20.45823667 28.45072061 -20.08684251 24.98205662 -19.71508789 21.51342773 C-19.6064743 20.49131195 -19.49786072 19.46919617 -19.38595581 18.41610718 C-18.84740141 13.40647811 -18.25245678 8.419646 -17.5 3.4375 C-11.4607293 0.82648503 -6.55364 -0.05785717 0 0 Z M-4.5 22.4375 C-4.79998753 24.44645604 -5.03973868 26.4644668 -5.25390625 28.484375 C-5.38603516 29.721875 -5.51816406 30.959375 -5.65429688 32.234375 C-5.78900391 33.53890625 -5.92371094 34.8434375 -6.0625 36.1875 C-6.20107422 37.4765625 -6.33964844 38.765625 -6.48242188 40.09375 C-7.30942359 47.74863062 -7.30942359 47.74863062 -7.5 55.4375 C-0.11889817 55.43161556 -0.11889817 55.43161556 6 51.75 C10.14141875 46.83862734 11.38111743 40.7739412 11.5 34.4375 C11.05928423 30.02218088 9.95013912 27.07299052 7.375 23.4375 C4.29829005 21.29718003 -1.27833055 19.21583055 -4.5 22.4375 Z " fill="#FFFFFF" transform="translate(577.5,9.5625)"/>
<path d="M0 0 C5.28 0 10.56 0 16 0 C15.79318604 1.94060303 15.58637207 3.88120605 15.37329102 5.88061523 C14.68349213 12.36217778 13.99741391 18.84412613 13.31375217 25.32633877 C12.89996337 29.2484633 12.48477859 33.17042858 12.06616211 37.09204102 C11.66066298 40.89129424 11.25914573 44.69095077 10.86015129 48.49089241 C10.70884923 49.92556201 10.55621907 51.36009232 10.40210152 52.7944622 C9.5682851 60.56372915 8.85341354 68.33023964 8.35913086 76.12915039 C8.3124228 76.82460433 8.26571474 77.52005827 8.21759129 78.23658657 C7.78824444 85.59599479 7.98361069 92.08743767 12.25 98.25 C14.88816254 100.25210266 14.88816254 100.25210266 18.0625 100.125 C21.72099903 98.72387271 22.77579484 97.19383048 25 94 C28.7071414 85.24948356 29.92959445 75.99987807 30.9375 66.625 C31.0958227 65.24012678 31.25511628 63.85536427 31.4152832 62.47070312 C32.44504562 53.46352408 33.37841053 44.4455771 34.328125 35.4296875 C34.44108414 34.35957428 34.55404327 33.28946106 34.67042542 32.18692017 C35.23460492 26.83458759 35.79234907 21.48173231 36.33764648 16.12744141 C36.54145876 14.15787293 36.74531412 12.18830892 36.94921875 10.21875 C37.04072205 9.3005246 37.13222534 8.38229919 37.22650146 7.43624878 C37.88696894 1.11303106 37.88696894 1.11303106 39 0 C41.5327765 -0.07320163 44.03103918 -0.09227569 46.5625 -0.0625 C48.53271118 -0.0459436 48.53271118 -0.0459436 50.54272461 -0.02905273 C51.68362549 -0.01946533 52.82452637 -0.00987793 54 0 C53.38522622 14.4185726 51.7412341 28.74309471 50.15356445 43.07983398 C49.84212574 45.89561684 49.53692998 48.71196266 49.23754883 51.52905273 C43.25232148 107.79964498 43.25232148 107.79964498 29.390625 119.33984375 C22.76655521 123.94717942 15.79424933 123.62030358 8 123 C4.5 121.5 4.5 121.5 2 119 C1.49210937 118.51015625 0.98421875 118.0203125 0.4609375 117.515625 C-9.96652049 105.90673088 -8.71654647 87.49871227 -8 73 C-7.2004152 62.23535166 -6.0019731 51.5078118 -4.81335449 40.78045654 C-4.47534847 37.70772684 -4.14756248 34.63394449 -3.82019138 31.56006622 C-3.14259974 25.19972493 -2.45734971 18.84019911 -1.75610352 12.48242188 C-1.57290306 10.81657043 -1.57290306 10.81657043 -1.38600159 9.11706543 C-1.00822621 6.06642881 -0.50535238 3.03211428 0 0 Z " fill="#FFFFFF" transform="translate(494,11)"/>
<path d="M0 0 C6.6 0 13.2 0 20 0 C21.38062728 14.66851366 22.56158992 29.32526153 23.5078125 44.02734375 C23.63929558 46.04180558 23.77096254 48.05625541 23.90280151 50.07069397 C24.17511296 54.2409441 24.44548871 58.41131351 24.71435547 62.58178711 C25.05827113 67.91443159 25.40681094 73.24676222 25.75671577 78.57901669 C26.02777848 82.71648827 26.29662663 86.85410142 26.564785 90.99176216 C26.69252862 92.959317 26.82090903 94.92683061 26.94995499 96.89430046 C27.12917875 99.63243885 27.30545942 102.37075145 27.48095703 105.10913086 C27.56040054 106.3099379 27.56040054 106.3099379 27.64144897 107.53500366 C27.68904358 108.28693497 27.73663818 109.03886627 27.78567505 109.81358337 C27.82732347 110.45699645 27.8689719 111.10040953 27.9118824 111.76331997 C28.03309184 114.83996672 28 117.92096655 28 121 C22.72 121 17.44 121 12 121 C11.30219816 116.81318897 10.83465901 113.13197837 10.68359375 108.9453125 C10.64169922 107.83671875 10.59980469 106.728125 10.55664062 105.5859375 C10.51732422 104.44382812 10.47800781 103.30171875 10.4375 102.125 C10.39431641 100.9596875 10.35113281 99.794375 10.30664062 98.59375 C10.20098437 95.72929158 10.10002901 92.86466045 10 90 C4.06 90 -1.88 90 -8 90 C-8.86625 93.774375 -8.86625 93.774375 -9.75 97.625 C-11.58111548 105.50139932 -13.71327699 113.24147549 -16 121 C-21.28 121 -26.56 121 -32 121 C-31.36327176 114.34079769 -29.83328865 108.15472941 -28.04077148 101.71875 C-27.73826477 100.61542831 -27.43575806 99.51210663 -27.12408447 98.37535095 C-26.12835114 94.74876293 -25.12477693 91.12439511 -24.12109375 87.5 C-23.42700999 84.97807949 -22.73341849 82.45602344 -22.04029846 79.93383789 C-20.40503321 73.98652786 -18.76411336 68.0407937 -17.12112051 62.09561443 C-15.24972924 55.3228908 -13.38470272 48.54841986 -11.52019012 41.7737999 C-7.68717053 27.8472546 -3.84599785 13.92296661 0 0 Z M7 24 C3.29071552 39.32347326 -0.41293274 54.64735214 -4 70 C0.62 70 5.24 70 10 70 C9.34 54.82 8.68 39.64 8 24 C7.67 24 7.34 24 7 24 Z " fill="#FFFFFF" transform="translate(634,11)"/>
<path d="M0 0 C6.6 0 13.2 0 20 0 C21.38062728 14.66851366 22.56158992 29.32526153 23.5078125 44.02734375 C23.63929558 46.04180558 23.77096254 48.05625541 23.90280151 50.07069397 C24.17511296 54.2409441 24.44548871 58.41131351 24.71435547 62.58178711 C25.05827113 67.91443159 25.40681094 73.24676222 25.75671577 78.57901669 C26.02777848 82.71648827 26.29662663 86.85410142 26.564785 90.99176216 C26.69252862 92.959317 26.82090903 94.92683061 26.94995499 96.89430046 C27.12917875 99.63243885 27.30545942 102.37075145 27.48095703 105.10913086 C27.56040054 106.3099379 27.56040054 106.3099379 27.64144897 107.53500366 C27.68904358 108.28693497 27.73663818 109.03886627 27.78567505 109.81358337 C27.82732347 110.45699645 27.8689719 111.10040953 27.9118824 111.76331997 C28.03309184 114.83996672 28 117.92096655 28 121 C22.72 121 17.44 121 12 121 C11.30219816 116.81318897 10.83465901 113.13197837 10.68359375 108.9453125 C10.64169922 107.83671875 10.59980469 106.728125 10.55664062 105.5859375 C10.51732422 104.44382812 10.47800781 103.30171875 10.4375 102.125 C10.39431641 100.9596875 10.35113281 99.794375 10.30664062 98.59375 C10.20098437 95.72929158 10.10002901 92.86466045 10 90 C4.06 90 -1.88 90 -8 90 C-8.86625 93.774375 -8.86625 93.774375 -9.75 97.625 C-11.58111548 105.50139932 -13.71327699 113.24147549 -16 121 C-21.28 121 -26.56 121 -32 121 C-31.36327176 114.34079769 -29.83328865 108.15472941 -28.04077148 101.71875 C-27.73826477 100.61542831 -27.43575806 99.51210663 -27.12408447 98.37535095 C-26.12835114 94.74876293 -25.12477693 91.12439511 -24.12109375 87.5 C-23.42700999 84.97807949 -22.73341849 82.45602344 -22.04029846 79.93383789 C-20.40503321 73.98652786 -18.76411336 68.0407937 -17.12112051 62.09561443 C-15.24972924 55.3228908 -13.38470272 48.54841986 -11.52019012 41.7737999 C-7.68717053 27.8472546 -3.84599785 13.92296661 0 0 Z M7 24 C3.29071552 39.32347326 -0.41293274 54.64735214 -4 70 C0.62 70 5.24 70 10 70 C9.34 54.82 8.68 39.64 8 24 C7.67 24 7.34 24 7 24 Z " fill="#FFFFFF" transform="translate(38,11)"/>
<path d="M0 0 C0.83272934 0.00222061 1.66545868 0.00444122 2.52342224 0.00672913 C3.46432205 0.00680466 4.40522186 0.00688019 5.37463379 0.00695801 C6.39754013 0.01211929 7.42044647 0.01728058 8.47434998 0.02259827 C9.51614914 0.02401321 10.5579483 0.02542816 11.63131714 0.02688599 C14.97355467 0.03250372 18.31572629 0.04505922 21.65794373 0.05775452 C23.91770839 0.06276723 26.17747409 0.06733053 28.4372406 0.07142639 C33.98999763 0.08247891 39.54271597 0.09923428 45.09544373 0.12025452 C45.11032419 1.70054779 45.12086822 3.28088223 45.12962341 4.86122131 C45.13596802 5.74126328 45.14231262 6.62130524 45.14884949 7.52801514 C44.94332437 17.50391095 40.09866091 26.02141143 35.84544373 34.80775452 C35.1257474 36.31222751 34.40709365 37.81719966 33.68943787 39.32264709 C32.2182007 42.40781257 30.74319277 45.49113174 29.26585388 48.57337952 C26.26938773 54.83700763 23.33654368 61.13008481 20.40830994 67.42582703 C19.03379986 70.38085117 17.65615093 73.33441166 16.27903748 76.28822327 C15.76711853 77.38698792 15.25519958 78.48575256 14.72776794 79.61781311 C11.85284564 85.78646931 8.97387102 91.95323311 6.09544373 98.12025452 C15.66544373 98.12025452 25.23544373 98.12025452 35.09544373 98.12025452 C35.09544373 109.12025452 35.09544373 109.12025452 33.09544373 121.12025452 C16.26544373 121.12025452 -0.56455627 121.12025452 -17.90455627 121.12025452 C-16.75619695 103.89486462 -16.75619695 103.89486462 -13.65065002 97.97572327 C-13.31798126 97.2898111 -12.9853125 96.60389893 -12.64256287 95.89720154 C-11.56527065 93.68857089 -10.45420465 91.4990059 -9.34205627 89.30775452 C-8.57463604 87.74844748 -7.80995534 86.18778951 -7.04786682 84.62586975 C-5.47165218 81.40037337 -3.88405235 78.18087541 -2.28834534 74.96498108 C1.1647854 67.97968854 4.46190962 60.92140749 7.7624054 53.86308289 C8.75192799 51.74901805 9.74525401 49.6367919 10.74021912 47.52528381 C14.56451036 39.40800884 18.34505513 31.27202082 22.09544373 23.12025452 C13.18544373 23.12025452 4.27544373 23.12025452 -4.90455627 23.12025452 C-4.59518127 19.51087952 -4.28580627 15.90150452 -3.96705627 12.18275452 C-3.87174622 11.04330383 -3.77643616 9.90385315 -3.67823792 8.72987366 C-3.59952454 7.8390509 -3.52081116 6.94822815 -3.43971252 6.03041077 C-3.36116028 5.1139679 -3.28260803 4.19752502 -3.20167542 3.25331116 C-2.82561437 0.55352037 -2.72963382 0.17235027 0 0 Z " fill="#FFFFFF" transform="translate(439.90455627441406,10.879745483398438)"/>
<path d="M0 0 C13.53 0 27.06 0 41 0 C41 8.1051705 40.23478551 15.05106827 39 23 C30.42 23 21.84 23 13 23 C13 25.97 13 28.94 13 32 C12.71265064 34.87605926 12.39612113 37.704376 12 40.5625 C11.67 43.016875 11.34 45.47125 11 48 C18.92 48 26.84 48 35 48 C34.34 55.26 33.68 62.52 33 70 C24.75 70 16.5 70 8 70 C8 72.97 8 75.94 8 79 C7.88841738 80.6810099 7.74982999 82.36089449 7.5625 84.03515625 C7.48128906 84.78418213 7.40007812 85.53320801 7.31640625 86.30493164 C7.21199219 87.2149292 7.10757812 88.12492676 7 89.0625 C6.67 92.011875 6.34 94.96125 6 98 C14.58 98 23.16 98 32 98 C32 107 32 107 30 121 C16.14 121 2.28 121 -12 121 C-12 110.875 -12 110.875 -11.54443359 106.66575623 C-11.44346375 105.71099899 -11.3424939 104.75624176 -11.23846436 103.77255249 C-11.07015106 102.25016464 -11.07015106 102.25016464 -10.8984375 100.69702148 C-10.78139465 99.60330734 -10.66435181 98.5095932 -10.54376221 97.38273621 C-10.15869617 93.79501858 -9.76689656 90.20807112 -9.375 86.62109375 C-9.10554015 84.12293413 -8.83650333 81.62472885 -8.56787109 79.1264801 C-7.93390863 73.24026061 -7.29570522 67.35451094 -6.65540886 61.46897799 C-5.85444257 54.10413909 -5.06012893 46.73858522 -4.265625 39.37304688 C-2.84906061 26.24811846 -1.42594204 13.12391291 0 0 Z " fill="#FFFFFF" transform="translate(320,11)"/>
<path d="M0 0 C1.010625 0.66 2.02125 1.32 3.0625 2 C2.60843375 9.95398808 1.19138539 17.32797907 -0.9375 25 C-1.88625 24.505 -2.835 24.01 -3.8125 23.5 C-9.02932926 21.29287993 -14.46913221 20.97587565 -19.921875 22.5859375 C-26.2706681 25.64796603 -29.60155355 31.65356364 -32.12890625 37.984375 C-37.64085349 54.66259173 -40.23231974 75.08844837 -32.765625 91.58984375 C-30.62388356 95.24534689 -28.99999956 97.48021599 -24.9375 99 C-18.63954292 99.65583627 -12.88553444 99.11485669 -6.9375 97 C-5.76347807 104.33763707 -5.84372877 111.58165418 -5.9375 119 C-13.78941254 123.88563447 -22.02069027 123.89168097 -30.9375 123 C-37.67553037 121.35657796 -42.09731124 116.57719345 -45.9375 111 C-53.11202194 98.51749842 -54.49973613 85.06971714 -54.375 70.9375 C-54.37229095 70.21688385 -54.36958191 69.4962677 -54.36679077 68.7538147 C-54.2380308 46.11054295 -50.04329224 23.0372266 -34.0234375 5.828125 C-24.75734611 -2.29271914 -11.45563899 -5.63657989 0 0 Z " fill="#FFFFFF" transform="translate(305.9375,11)"/>
<path d="M0 0 C5.28 0 10.56 0 16 0 C19.03050288 15.9101401 21.0068255 31.93431308 23 48 C23.18570053 47.42814972 23.37140106 46.85629944 23.56272888 46.26712036 C25.49118263 40.32964566 27.42182669 34.39288646 29.35375977 28.45654297 C30.07502862 26.239279 30.79573371 24.02183157 31.51586914 21.80419922 C32.54947056 18.62158893 33.58507988 15.43963817 34.62109375 12.2578125 C34.94403915 11.26194122 35.26698456 10.26606995 35.59971619 9.24002075 C35.89995193 8.31921722 36.20018768 7.3984137 36.50952148 6.44970703 C36.77377426 5.6369632 37.03802704 4.82421936 37.31028748 3.98684692 C38 2 38 2 39 0 C44.94 0 50.88 0 57 0 C56.29813833 3.50930833 55.69604295 6.05890361 54.37695312 9.25756836 C54.04570435 10.06709457 53.71445557 10.87662079 53.37316895 11.7106781 C53.01283569 12.57830276 52.65250244 13.44592743 52.28125 14.33984375 C51.9044812 15.25721817 51.5277124 16.17459259 51.13952637 17.11976624 C49.93055578 20.06076227 48.71542851 22.99916777 47.5 25.9375 C46.71312471 27.84813562 45.92666262 29.75894148 45.140625 31.66992188 C44.75173096 32.61376236 44.36283691 33.55760284 43.9621582 34.53004456 C43.16986595 36.45712101 42.38067736 38.3854762 41.59448242 40.31504822 C39.6432282 45.08971195 37.64280403 49.82587973 35.50390625 54.51977539 C29.54591936 67.82551942 27.17605632 80.08455214 26 94.5625 C25.811783 96.58818949 25.62038508 98.61358598 25.42578125 100.63867188 C25.15418366 103.47066451 24.88689127 106.30218429 24.64477539 109.13685608 C24.57379639 109.96640305 24.50281738 110.79595001 24.4296875 111.65063477 C24.37022949 112.37259537 24.31077148 113.09455597 24.24951172 113.83839417 C23.97164211 116.24567419 23.47524118 118.62379411 23 121 C17.72 121 12.44 121 7 121 C7.21430664 119.82574463 7.42861328 118.65148926 7.64941406 117.44165039 C13.9282718 81.41758693 9.90578575 50.4922539 1.95704651 15.31266785 C1.70092087 14.17146988 1.44479523 13.03027191 1.1809082 11.85449219 C0.8385186 10.36861603 0.8385186 10.36861603 0.48921204 8.85272217 C0 6 0 6 0 0 Z " fill="#FFFFFF" transform="translate(202,11)"/>
<path d="M0 0 C16.83 0 33.66 0 51 0 C50 18 50 18 49 24 C43.06 24 37.12 24 31 24 C30.67128906 27.44759766 30.67128906 27.44759766 30.3359375 30.96484375 C27.42347046 61.33093356 24.22624582 91.6658541 21 122 C15.72 122 10.44 122 5 122 C5.70319957 111.31305355 6.69545804 100.68504878 7.8125 90.03515625 C7.98819511 88.34559239 8.16372907 86.65601177 8.33911133 84.96641541 C8.70415879 81.4542685 9.07071895 77.94228406 9.43847656 74.43041992 C9.9082995 69.94327339 10.37490573 65.4557995 10.84046936 60.96820927 C11.20145474 57.49103406 11.5638087 54.01400257 11.92660522 50.53701591 C12.09917611 48.88214134 12.27140254 47.2272308 12.44326782 45.57228279 C12.68349593 43.26166931 12.92549112 40.9512475 13.16796875 38.64086914 C13.30485107 37.33074356 13.4417334 36.02061798 13.58276367 34.67079163 C13.98799903 31.10558302 14.49255684 27.55210213 15 24 C9.39 24 3.78 24 -2 24 C-2.25604832 15.55040538 -1.23616815 8.65317706 0 0 Z " fill="#FFFFFF" transform="translate(147,10)"/>
</svg>
