<svg xmlns="http://www.w3.org/2000/svg" xml:space="preserve" width="32" height="32">
<style>.icon{fill:#333333}@media (prefers-color-scheme:dark){.icon{fill:#e5e5e5}}</style>
<path class="icon" d="M21.4 10.4c-2.1-2.1-5.6-2.2-7.8-.1l-3.9 3.9L8.4 13c-.1-.1-.2-.1-.3-.1-.1 0-.2.1-.3.2-.1.1-.1.2-.1.3v4.5c-.1.1.1.2.1.3.1 0 .2.1.3.1h4.4c.1.1.2-.1.3-.1.1-.1.1-.2.1-.3.1-.1-.1-.2-.1-.3l-1.1-1.2 3.9-3.9c1.1-1.1 2.9-1.1 3.9 0 1.1 1.1 1 2.8-.1 3.9L12.6 23l2 2 6.8-6.7c2.1-2.3 2.1-5.7 0-7.9z" style="fill=currentColor;fill-opacity:1"/>
</svg>