<svg xmlns="http://www.w3.org/2000/svg" xml:space="preserve" id="svg1" width="32" height="32" version="1.1">
<style>.icon{fill:#333333;stroke:#333333}@media (prefers-color-scheme:dark){.icon{fill:#e5e5e5;stroke:#e5e5e5}}</style>
<path d="M12.532 24.483c-1.108-2.215-.499-3.49.332-4.707.942-1.329 1.163-2.658 1.163-2.658s.665.94.388 2.325c1.274-1.384 1.495-3.6 1.329-4.485 2.824 1.938 3.987 6.257 2.38 9.414 8.64-4.874 2.16-12.239 1.053-13.014.387.83.443 2.215-.277 2.935-1.329-4.873-4.486-5.925-4.486-5.925.388 2.547-1.384 5.26-3.046 7.365-.055-1.052-.11-1.717-.609-2.658-.11 1.827-1.495 3.322-1.883 5.15-.61 2.547.277 4.319 3.655 6.257z" class="icon" style="display:inline;fill=currentColor;fill-opacity:1;stroke:none"/>
</svg>